<svg xmlns="http://www.w3.org/2000/svg" viewBox="0 0 362.66 293.92"><title>sina-weibo-logo</title><path d="M101.27,311.46c0,41.92,55.22,76.59,122.54,76.59,68.12,0,122.54-34.26,122.54-76.59s-55.22-77-122.54-77-122.54,34.66-122.54,77" transform="translate(-74.67 -109.04)" style="fill:#fff"/><path d="M346.75,250.59c-5.24-1.61-8.87-2.42-5.64-8.87,5.64-14.51,6-27,0-35.87-12.09-16.53-44.34-16.12-81-.4,0,0-11.69,5.24-8.87-4.43,5.64-18.14,4.84-33.46-4-42.73-19.75-20.15-72.55.81-118.51,46-33.86,34.26-54,70.54-54,102.38C74.67,366.28,152.06,403,227,403c98.75,0,164.46-57.64,164.46-102.79C391.09,272.36,367.31,257,346.75,250.59ZM226.63,381.19c-59.66,6-112.06-21-116.09-60.87-4-39.1,41.52-76.18,101.58-81.83s112.06,21,116.09,60.87C332.64,338.47,286.69,375.55,226.63,381.19Z" transform="translate(-74.67 -109.04)" style="fill:#d62b2a"/><path d="M412.45,140.55A96.49,96.49,0,0,0,321,111.13h0c-7.66,1.61-12.5,8.87-10.48,16.12,1.61,7.66,8.87,12.5,16.12,10.48a69.84,69.84,0,0,1,65.3,21,70.79,70.79,0,0,1,14.51,66.91h0a14,14,0,1,0,26.6,8.87h0a97.68,97.68,0,0,0-20.56-93.92" transform="translate(-74.67 -109.04)" style="fill:#e89214"/><path d="M375.77,174A47.27,47.27,0,0,0,331,159.5a12,12,0,1,0,5.64,23.38h0A22.64,22.64,0,0,1,358,190.13a23.15,23.15,0,0,1,4.84,22.57h0c-1.61,6,1.61,12.9,7.66,14.91,6,1.61,12.9-1.61,14.91-7.66,5.24-16.12,2.42-33.46-9.67-46" transform="translate(-74.67 -109.04)" style="fill:#e89214"/><path d="M232.68,269.14c-28.62-7.66-60.87,6.45-73.36,32.25s-.4,54,28.22,63.69c29.83,9.27,65.3-5.24,77.79-33.05C277.42,304.61,262.51,276.79,232.68,269.14Zm-21.77,65.3c-5.64,8.87-18.14,13.3-27.81,8.87-8.87-4.43-12.09-14.91-6-23.78,5.64-8.87,17.74-12.9,27-8.87C213.73,314.68,216.55,325.16,210.91,334.44Zm18.94-24.59c-1.61,4-6.45,5.24-10.48,4a6.2,6.2,0,0,1-2.82-8.87c1.61-3.22,6.45-5.24,10.08-4C231.07,302.19,231.87,306.62,229.86,309.85Z" transform="translate(-74.67 -109.04)" style="fill:#040000"/></svg>